<svg xmlns="http://www.w3.org/2000/svg" xmlns:xlink="http://www.w3.org/1999/xlink" width="3120" height="515.91"><rect width="3120" height="515.91" rx="5" ry="5" class="a"/><svg y="0%" x="0%"><circle cx="20" cy="20" r="6" fill="#ff5f58"/><circle cx="40" cy="20" r="6" fill="#ffbd2e"/><circle cx="60" cy="20" r="6" fill="#18c132"/></svg><svg height="455.91" viewBox="0 0 308 45.591" width="3080" x="15" xmlns="http://www.w3.org/2000/svg" xmlns:xlink="http://www.w3.org/1999/xlink" y="50"><style>@keyframes l{0%{transform:translateX(0)}3.8%{transform:translateX(-616px)}10%{transform:translateX(-2464px)}18.8%{transform:translateX(-3080px)}22.5%{transform:translateX(-3696px)}25%{transform:translateX(-4312px)}31.3%{transform:translateX(-4928px)}37.5%{transform:translateX(-5544px)}50%{transform:translateX(-5852px)}56.3%{transform:translateX(-6776px)}62.5%{transform:translateX(-7700px)}68.8%{transform:translateX(-8316px)}75%{transform:translateX(-8932px)}81.3%{transform:translateX(-9548px)}to{transform:translateX(-9856px)}}.a{fill:#282d35}.f{fill:#dbab79}.f,.g{white-space:pre}.g,.h{fill:#a8cc8c}.i{white-space:pre}</style><g font-family="Monaco,Consolas,Menlo,'Bitstream Vera Sans Mono','Powerline Symbols',monospace" font-size="1.67"><defs><symbol id="1"><text y="1.67" class="f">Starting</text><text x="9.018" y="1.67" class="f">scan</text><text x="14.028" y="1.67" class="f">of</text><text x="17.034" y="1.67" class="f">api:</text><text x="22.044" y="1.67" class="f">http://127.0.0.1:9001/</text></symbol><symbol id="2"><text y="1.67" class="f">============================================</text></symbol><symbol id="3"><text x="1.002" y="1.67" class="g">[INFO]</text><text x="8.016" y="1.67" class="g">No</text><text x="11.022" y="1.67" class="g">revision</text><text x="20.04" y="1.67" class="g">in</text><text x="23.046" y="1.67" class="g">server</text><text x="30.06" y="1.67" class="g">header</text></symbol><symbol id="4"><text x="1.002" y="1.67" class="g">[INFO]</text><text x="8.016" y="1.67" class="g">api</text><text x="12.024" y="1.67" class="g">version:</text><text x="21.042" y="1.67" class="g">1.3.0</text></symbol><symbol id="5"><text y="1.67" class="f">Starting</text><text x="9.018" y="1.67" class="f">scan</text><text x="14.028" y="1.67" class="f">of</text><text x="17.034" y="1.67" class="f">a</text><text x="19.038" y="1.67" class="f">pad...</text></symbol><symbol id="6"><text y="1.67" class="f">=========================</text></symbol><symbol id="7"><text x="1.002" y="1.67" class="g">[INFO]</text><text x="8.016" y="1.67" class="g">Package</text><text x="16.032" y="1.67" class="g">version:</text><text x="25.05" y="1.67" class="g">2.6.1</text></symbol><symbol id="8"><text x="1.002" y="1.67" class="g">[INFO]</text><text x="8.016" y="1.67" class="g">No</text><text x="11.022" y="1.67" class="g">plugins</text><text x="19.038" y="1.67" class="g">found</text></symbol><symbol id="9"><path class="h" d="M0 0h120v2.171H0z"/><text y="1.67" class="i"></text></symbol><symbol id="10"><path class="h" d="M0 0h120v2.171H0z"/><text y="1.67" class="i">[OK] Pads are publicly accessible</text></symbol><symbol id="11"><path class="h" d="M0 0h120v2.171H0z"/><text y="1.67" class="i">[OK] Websocket is supported</text></symbol><symbol id="12"><path class="h" d="M0 0h120v2.171H0z"/><text y="1.67" class="i">[OK] Server is healthy</text></symbol><symbol id="13"><text x="1.002" y="1.67" class="g">[INFO]</text><text x="8.016" y="1.67" class="g">Version</text><text x="16.032" y="1.67" class="g">is</text><text x="19.038" y="1.67" class="g">2.6.1</text></symbol><symbol id="14"><text x="1.002" y="1.67" class="g">[INFO]</text><text x="8.016" y="1.67" class="g">Server</text><text x="15.03" y="1.67" class="g">running</text><text x="23.046" y="1.67" class="g">since:</text><text x="30.06" y="1.67" class="g">2026-04-16T19:51:11+00:00</text></symbol><symbol id="15"><text y="1.67" class="f">Starting</text><text x="9.018" y="1.67" class="f">scan</text><text x="14.028" y="1.67" class="f">of</text><text x="17.034" y="1.67" class="f">admin</text><text x="23.046" y="1.67" class="f">area...</text></symbol><symbol id="16"><text y="1.67" class="f">==============================</text></symbol><symbol id="17"><path class="h" d="M0 0h120v2.171H0z"/><text y="1.67" class="i">[OK] Admin area is not accessible with admin / admin</text></symbol><symbol id="18"><path class="h" d="M0 0h120v2.171H0z"/><text y="1.67" class="i">[OK] Admin area is not accessible with admin / changeme1</text></symbol><symbol id="19"><path class="h" d="M0 0h120v2.171H0z"/><text y="1.67" class="i">[OK] Admin area is not accessible with user / changeme1</text></symbol><symbol id="a"><path fill="transparent" d="M0 0h308v21H0z"/></symbol><symbol id="b"><path fill="#6f7683" d="M0 0h1.102v2.171H0z"/></symbol></defs><path class="a" d="M0 0h308v45.591H0z"/><g style="animation-duration:8s;animation-iteration-count:infinite;animation-name:l;animation-timing-function:steps(1,end)"><svg width="10164"><svg><use xlink:href="#a"/><use xlink:href="#b" x="-.004"/></svg><svg x="308"><use xlink:href="#a"/><use xlink:href="#b" x="-.004" y="2.146"/></svg><svg x="616"><use xlink:href="#a"/><use xlink:href="#b" x="-.004" y="6.488"/><use xlink:href="#1" y="2.171"/><use xlink:href="#2" y="4.342"/></svg><svg x="924"><use xlink:href="#a"/><use xlink:href="#b" x="-.004" y="8.659"/><use xlink:href="#1" y="2.171"/><use xlink:href="#2" y="4.342"/></svg><svg x="1232"><use xlink:href="#a"/><use xlink:href="#b" x="-.004" y="10.83"/><use xlink:href="#1" y="2.171"/><use xlink:href="#2" y="4.342"/></svg><svg x="1540"><use xlink:href="#a"/><use xlink:href="#b" x="-.004" y="17.343"/><use xlink:href="#1" y="2.171"/><use xlink:href="#2" y="4.342"/><use xlink:href="#3" y="10.855"/></svg><svg x="1848"><use xlink:href="#a"/><use xlink:href="#b" x="-.004" y="19.514"/><use xlink:href="#1" y="2.171"/><use xlink:href="#2" y="4.342"/><use xlink:href="#3" y="10.855"/></svg><svg x="2156"><use xlink:href="#a"/><use xlink:href="#b" x="-.004" y="21.685"/><use xlink:href="#1" y="2.171"/><use xlink:href="#2" y="4.342"/><use xlink:href="#3" y="10.855"/><use xlink:href="#4" y="19.539"/></svg><svg x="2464"><use xlink:href="#a"/><use xlink:href="#b" x="-.004" y="26.027"/><use xlink:href="#1" y="2.171"/><use xlink:href="#2" y="4.342"/><use xlink:href="#3" y="10.855"/><use xlink:href="#4" y="19.539"/></svg><svg x="2772"><use xlink:href="#a"/><use xlink:href="#b" x="-.004" y="30.369"/><use xlink:href="#1" y="2.171"/><use xlink:href="#2" y="4.342"/><use xlink:href="#3" y="10.855"/><use xlink:href="#4" y="19.539"/><use xlink:href="#5" y="26.052"/><use xlink:href="#6" y="28.223"/></svg><svg x="3080"><use xlink:href="#a"/><use xlink:href="#b" x="-.004" y="32.54"/><use xlink:href="#1" y="2.171"/><use xlink:href="#2" y="4.342"/><use xlink:href="#3" y="10.855"/><use xlink:href="#4" y="19.539"/><use xlink:href="#5" y="26.052"/><use xlink:href="#6" y="28.223"/></svg><svg x="3388"><use xlink:href="#a"/><use xlink:href="#b" x="-.004" y="36.882"/><use xlink:href="#1" y="2.171"/><use xlink:href="#2" y="4.342"/><use xlink:href="#3" y="10.855"/><use xlink:href="#4" y="19.539"/><use xlink:href="#5" y="26.052"/><use xlink:href="#6" y="28.223"/><use xlink:href="#7" y="34.736"/></svg><svg x="3696"><use xlink:href="#a"/><use xlink:href="#b" x="-.004" y="41.224"/><use xlink:href="#1" y="2.171"/><use xlink:href="#2" y="4.342"/><use xlink:href="#3" y="10.855"/><use xlink:href="#4" y="19.539"/><use xlink:href="#5" y="26.052"/><use xlink:href="#6" y="28.223"/><use xlink:href="#7" y="34.736"/></svg><svg x="4004"><use xlink:href="#a"/><use xlink:href="#b" x="-.004" y="43.395"/><use xlink:href="#3" y="4.342"/><use xlink:href="#4" y="13.026"/><use xlink:href="#5" y="19.539"/><use xlink:href="#6" y="21.71"/><use xlink:href="#7" y="28.223"/><use xlink:href="#8" y="36.907"/></svg><svg x="4312"><use xlink:href="#a"/><use xlink:href="#b" x="-.004" y="43.395"/><use xlink:href="#3" y="2.171"/><use xlink:href="#4" y="10.855"/><use xlink:href="#5" y="17.368"/><use xlink:href="#6" y="19.539"/><use xlink:href="#7" y="26.052"/><use xlink:href="#8" y="34.736"/><use xlink:href="#9" y="41.249"/></svg><svg x="4620"><use xlink:href="#a"/><use xlink:href="#b" x="-.004" y="43.395"/><use xlink:href="#4" y="4.342"/><use xlink:href="#5" y="10.855"/><use xlink:href="#6" y="13.026"/><use xlink:href="#7" y="19.539"/><use xlink:href="#8" y="28.223"/><use xlink:href="#9" y="34.736"/><use xlink:href="#10" y="36.907"/><use xlink:href="#9" y="39.078"/></svg><svg x="4928"><use xlink:href="#a"/><use xlink:href="#b" x="-.004" y="43.395"/><use xlink:href="#4" y="2.171"/><use xlink:href="#5" y="8.684"/><use xlink:href="#6" y="10.855"/><use xlink:href="#7" y="17.368"/><use xlink:href="#8" y="26.052"/><use xlink:href="#9" y="32.565"/><use xlink:href="#10" y="34.736"/><use xlink:href="#9" y="36.907"/><use xlink:href="#9" y="41.249"/></svg><svg x="5236"><use xlink:href="#a"/><use xlink:href="#b" x="-.004" y="43.395"/><use xlink:href="#5" y="2.171"/><use xlink:href="#6" y="4.342"/><use xlink:href="#7" y="10.855"/><use xlink:href="#8" y="19.539"/><use xlink:href="#9" y="26.052"/><use xlink:href="#10" y="28.223"/><use xlink:href="#9" y="30.394"/><use xlink:href="#9" y="34.736"/><use xlink:href="#11" y="36.907"/><use xlink:href="#9" y="39.078"/></svg><svg x="5544"><use xlink:href="#a"/><use xlink:href="#b" x="-.004" y="43.395"/><use xlink:href="#5"/><use xlink:href="#6" y="2.171"/><use xlink:href="#7" y="8.684"/><use xlink:href="#8" y="17.368"/><use xlink:href="#9" y="23.881"/><use xlink:href="#10" y="26.052"/><use xlink:href="#9" y="28.223"/><use xlink:href="#9" y="32.565"/><use xlink:href="#11" y="34.736"/><use xlink:href="#9" y="36.907"/><use xlink:href="#9" y="41.249"/></svg><svg x="5852"><use xlink:href="#a"/><use xlink:href="#b" x="-.004" y="43.395"/><use xlink:href="#7" y="2.171"/><use xlink:href="#8" y="10.855"/><use xlink:href="#9" y="17.368"/><use xlink:href="#10" y="19.539"/><use xlink:href="#9" y="21.71"/><use xlink:href="#9" y="26.052"/><use xlink:href="#11" y="28.223"/><use xlink:href="#9" y="30.394"/><use xlink:href="#9" y="34.736"/><use xlink:href="#12" y="36.907"/><use xlink:href="#9" y="39.078"/></svg><svg x="6160"><use xlink:href="#a"/><use xlink:href="#b" x="-.004" y="43.395"/><use xlink:href="#7"/><use xlink:href="#8" y="8.684"/><use xlink:href="#9" y="15.197"/><use xlink:href="#10" y="17.368"/><use xlink:href="#9" y="19.539"/><use xlink:href="#9" y="23.881"/><use xlink:href="#11" y="26.052"/><use xlink:href="#9" y="28.223"/><use xlink:href="#9" y="32.565"/><use xlink:href="#12" y="34.736"/><use xlink:href="#9" y="36.907"/></svg><svg x="6468"><use xlink:href="#a"/><use xlink:href="#b" x="-.004" y="43.395"/><use xlink:href="#8" y="4.342"/><use xlink:href="#9" y="10.855"/><use xlink:href="#10" y="13.026"/><use xlink:href="#9" y="15.197"/><use xlink:href="#9" y="19.539"/><use xlink:href="#11" y="21.71"/><use xlink:href="#9" y="23.881"/><use xlink:href="#9" y="28.223"/><use xlink:href="#12" y="30.394"/><use xlink:href="#9" y="32.565"/><use xlink:href="#13" y="39.078"/></svg><svg x="6776"><use xlink:href="#a"/><use xlink:href="#b" x="-.004" y="43.395"/><use xlink:href="#8" y="2.171"/><use xlink:href="#9" y="8.684"/><use xlink:href="#10" y="10.855"/><use xlink:href="#9" y="13.026"/><use xlink:href="#9" y="17.368"/><use xlink:href="#11" y="19.539"/><use xlink:href="#9" y="21.71"/><use xlink:href="#9" y="26.052"/><use xlink:href="#12" y="28.223"/><use xlink:href="#9" y="30.394"/><use xlink:href="#13" y="36.907"/></svg><svg x="7084"><use xlink:href="#a"/><use xlink:href="#b" x="-.004" y="43.395"/><use xlink:href="#8"/><use xlink:href="#9" y="6.513"/><use xlink:href="#10" y="8.684"/><use xlink:href="#9" y="10.855"/><use xlink:href="#9" y="15.197"/><use xlink:href="#11" y="17.368"/><use xlink:href="#9" y="19.539"/><use xlink:href="#9" y="23.881"/><use xlink:href="#12" y="26.052"/><use xlink:href="#9" y="28.223"/><use xlink:href="#13" y="34.736"/></svg><svg x="7392"><use xlink:href="#a"/><use xlink:href="#b" x="-.004" y="43.395"/><use xlink:href="#9" y="2.171"/><use xlink:href="#10" y="4.342"/><use xlink:href="#9" y="6.513"/><use xlink:href="#9" y="10.855"/><use xlink:href="#11" y="13.026"/><use xlink:href="#9" y="15.197"/><use xlink:href="#9" y="19.539"/><use xlink:href="#12" y="21.71"/><use xlink:href="#9" y="23.881"/><use xlink:href="#13" y="30.394"/><use xlink:href="#14" y="39.078"/></svg><svg x="7700"><use xlink:href="#a"/><use xlink:href="#b" x="-.004" y="43.395"/><use xlink:href="#10"/><use xlink:href="#9" y="2.171"/><use xlink:href="#9" y="6.513"/><use xlink:href="#11" y="8.684"/><use xlink:href="#9" y="10.855"/><use xlink:href="#9" y="15.197"/><use xlink:href="#12" y="17.368"/><use xlink:href="#9" y="19.539"/><use xlink:href="#13" y="26.052"/><use xlink:href="#14" y="34.736"/><use xlink:href="#15" y="41.249"/></svg><svg x="8008"><use xlink:href="#a"/><use xlink:href="#b" x="-.004" y="43.395"/><use xlink:href="#9" y="2.171"/><use xlink:href="#11" y="4.342"/><use xlink:href="#9" y="6.513"/><use xlink:href="#9" y="10.855"/><use xlink:href="#12" y="13.026"/><use xlink:href="#9" y="15.197"/><use xlink:href="#13" y="21.71"/><use xlink:href="#14" y="30.394"/><use xlink:href="#15" y="36.907"/><use xlink:href="#16" y="39.078"/></svg><svg x="8316"><use xlink:href="#a"/><use xlink:href="#b" x="-.004" y="43.395"/><use xlink:href="#11"/><use xlink:href="#9" y="2.171"/><use xlink:href="#9" y="6.513"/><use xlink:href="#12" y="8.684"/><use xlink:href="#9" y="10.855"/><use xlink:href="#13" y="17.368"/><use xlink:href="#14" y="26.052"/><use xlink:href="#15" y="32.565"/><use xlink:href="#16" y="34.736"/><use xlink:href="#9" y="39.078"/><use xlink:href="#17" y="41.249"/></svg><svg x="8624"><use xlink:href="#a"/><use xlink:href="#b" x="-.004" y="43.395"/><use xlink:href="#9" y="2.171"/><use xlink:href="#12" y="4.342"/><use xlink:href="#9" y="6.513"/><use xlink:href="#13" y="13.026"/><use xlink:href="#14" y="21.71"/><use xlink:href="#15" y="28.223"/><use xlink:href="#16" y="30.394"/><use xlink:href="#9" y="34.736"/><use xlink:href="#17" y="36.907"/><use xlink:href="#9" y="39.078"/></svg><svg x="8932"><use xlink:href="#a"/><use xlink:href="#b" x="-.004" y="43.395"/><use xlink:href="#12"/><use xlink:href="#9" y="2.171"/><use xlink:href="#13" y="8.684"/><use xlink:href="#14" y="17.368"/><use xlink:href="#15" y="23.881"/><use xlink:href="#16" y="26.052"/><use xlink:href="#9" y="30.394"/><use xlink:href="#17" y="32.565"/><use xlink:href="#9" y="34.736"/><use xlink:href="#9" y="39.078"/><use xlink:href="#18" y="41.249"/></svg><svg x="9240"><use xlink:href="#a"/><use xlink:href="#b" x="-.004" y="43.395"/><use xlink:href="#13" y="4.342"/><use xlink:href="#14" y="13.026"/><use xlink:href="#15" y="19.539"/><use xlink:href="#16" y="21.71"/><use xlink:href="#9" y="26.052"/><use xlink:href="#17" y="28.223"/><use xlink:href="#9" y="30.394"/><use xlink:href="#9" y="34.736"/><use xlink:href="#18" y="36.907"/><use xlink:href="#9" y="39.078"/></svg><svg x="9548"><use xlink:href="#a"/><use xlink:href="#b" x="-.004" y="43.395"/><use xlink:href="#13"/><use xlink:href="#14" y="8.684"/><use xlink:href="#15" y="15.197"/><use xlink:href="#16" y="17.368"/><use xlink:href="#9" y="21.71"/><use xlink:href="#17" y="23.881"/><use xlink:href="#9" y="26.052"/><use xlink:href="#9" y="30.394"/><use xlink:href="#18" y="32.565"/><use xlink:href="#9" y="34.736"/><use xlink:href="#9" y="39.078"/><use xlink:href="#19" y="41.249"/></svg><svg x="9856"><use xlink:href="#a"/><use xlink:href="#b" x="-.004" y="43.395"/><use xlink:href="#14" y="4.342"/><use xlink:href="#15" y="10.855"/><use xlink:href="#16" y="13.026"/><use xlink:href="#9" y="17.368"/><use xlink:href="#17" y="19.539"/><use xlink:href="#9" y="21.71"/><use xlink:href="#9" y="26.052"/><use xlink:href="#18" y="28.223"/><use xlink:href="#9" y="30.394"/><use xlink:href="#9" y="34.736"/><use xlink:href="#19" y="36.907"/><use xlink:href="#9" y="39.078"/></svg></svg></g></g></svg></svg>