<svg xmlns="http://www.w3.org/2000/svg" xmlns:xlink="http://www.w3.org/1999/xlink" width="1000" height="754.72"><rect width="1000" height="754.72" rx="5" ry="5" class="a"/><svg y="0%" x="0%"><circle cx="20" cy="20" r="6" fill="#ff5f58"/><circle cx="40" cy="20" r="6" fill="#ffbd2e"/><circle cx="60" cy="20" r="6" fill="#18c132"/></svg><svg height="694.72" viewBox="0 0 96 69.472" width="960" x="15" xmlns="http://www.w3.org/2000/svg" xmlns:xlink="http://www.w3.org/1999/xlink" y="50"><style>@keyframes k{0%{transform:translateX(0)}6.1%{transform:translateX(-96px)}6.2%{transform:translateX(-192px)}6.7%{transform:translateX(-576px)}14.3%{transform:translateX(-672px)}26%{transform:translateX(-1056px)}26.1%{transform:translateX(-1440px)}26.7%{transform:translateX(-1728px)}27.4%{transform:translateX(-2112px)}51.6%{transform:translateX(-2304px)}75.8%{transform:translateX(-2496px)}to{transform:translateX(-2688px)}}.a{fill:#282d35}.f{fill:#dbab79}.f,.g{white-space:pre}.g,.h{fill:#a8cc8c}.i{white-space:pre}</style><g font-family="Monaco,Consolas,Menlo,'Bitstream Vera Sans Mono','Powerline Symbols',monospace" font-size="1.67"><defs><symbol id="1"><text y="1.67" class="f">Starting</text><text x="9.018" y="1.67" class="f">scan</text><text x="14.028" y="1.67" class="f">of</text><text x="17.034" y="1.67" class="f">api:</text><text x="22.044" y="1.67" class="f">https://pads.ccc-ch.ch/</text></symbol><symbol id="2"><text y="1.67" class="f">=============================================</text></symbol><symbol id="3"><text x="1.002" y="1.67" class="g">[INFO]</text><text x="8.016" y="1.67" class="g">No</text><text x="11.022" y="1.67" class="g">revision</text><text x="20.04" y="1.67" class="g">in</text><text x="23.046" y="1.67" class="g">server</text><text x="30.06" y="1.67" class="g">header</text></symbol><symbol id="4"><text x="1.002" y="1.67" class="g">[INFO]</text><text x="8.016" y="1.67" class="g">api</text><text x="12.024" y="1.67" class="g">version:</text><text x="21.042" y="1.67" class="g">1.3.0</text></symbol><symbol id="5"><text y="1.67" class="f">Starting</text><text x="9.018" y="1.67" class="f">scan</text><text x="14.028" y="1.67" class="f">of</text><text x="17.034" y="1.67" class="f">a</text><text x="19.038" y="1.67" class="f">pad...</text></symbol><symbol id="6"><text y="1.67" class="f">=========================</text></symbol><symbol id="7"><text x="1.002" y="1.67" class="g">[INFO]</text><text x="8.016" y="1.67" class="g">Package</text><text x="16.032" y="1.67" class="g">version:</text><text x="25.05" y="1.67" class="g">2.6.1</text></symbol><symbol id="8"><text x="1.002" y="1.67" class="g">[INFO]</text><text x="8.016" y="1.67" class="g">No</text><text x="11.022" y="1.67" class="g">plugins</text><text x="19.038" y="1.67" class="g">found</text></symbol><symbol id="9"><path class="h" d="M0 0h96v2.171H0z"/><text y="1.67" class="i"></text></symbol><symbol id="10"><path class="h" d="M0 0h96v2.171H0z"/><text y="1.67" class="i">[OK] Pads are publicly accessible</text></symbol><symbol id="11"><path class="h" d="M0 0h96v2.171H0z"/><text y="1.67" class="i">[OK] Websocket is supported</text></symbol><symbol id="12"><path class="h" d="M0 0h96v2.171H0z"/><text y="1.67" class="i">[OK] Server is healthy</text></symbol><symbol id="13"><text x="1.002" y="1.67" class="g">[INFO]</text><text x="8.016" y="1.67" class="g">Version</text><text x="16.032" y="1.67" class="g">is</text><text x="19.038" y="1.67" class="g">2.6.1</text></symbol><symbol id="14"><text x="1.002" y="1.67" class="g">[INFO]</text><text x="8.016" y="1.67" class="g">Server</text><text x="15.03" y="1.67" class="g">running</text><text x="23.046" y="1.67" class="g">since:</text><text x="30.06" y="1.67" class="g">2026-04-05T18:35:35+00:00</text></symbol><symbol id="15"><text y="1.67" class="f">Starting</text><text x="9.018" y="1.67" class="f">scan</text><text x="14.028" y="1.67" class="f">of</text><text x="17.034" y="1.67" class="f">admin</text><text x="23.046" y="1.67" class="f">area...</text></symbol><symbol id="16"><text y="1.67" class="f">==============================</text></symbol><symbol id="17"><path class="h" d="M0 0h96v2.171H0z"/><text y="1.67" class="i">[OK] Admin area is not accessible with admin / admin</text></symbol><symbol id="18"><path class="h" d="M0 0h96v2.171H0z"/><text y="1.67" class="i">[OK] Admin area is not accessible with admin / changeme1</text></symbol><symbol id="19"><path class="h" d="M0 0h96v2.171H0z"/><text y="1.67" class="i">[OK] Admin area is not accessible with user / changeme1</text></symbol><symbol id="a"><path fill="transparent" d="M0 0h96v32H0z"/></symbol></defs><path class="a" d="M0 0h96v69.472H0z"/><g style="animation-duration:8.453398s;animation-iteration-count:infinite;animation-name:k;animation-timing-function:steps(1,end)"><svg width="2784"><svg><use xlink:href="#a"/></svg><svg x="96"><use xlink:href="#a"/></svg><svg x="192"><use xlink:href="#a"/><use xlink:href="#1" y="2.171"/><use xlink:href="#2" y="4.342"/></svg><svg x="288"><use xlink:href="#a"/><use xlink:href="#1" y="2.171"/><use xlink:href="#2" y="4.342"/><use xlink:href="#3" y="10.855"/></svg><svg x="384"><use xlink:href="#a"/><use xlink:href="#1" y="2.171"/><use xlink:href="#2" y="4.342"/><use xlink:href="#3" y="10.855"/></svg><svg x="480"><use xlink:href="#a"/><use xlink:href="#1" y="2.171"/><use xlink:href="#2" y="4.342"/><use xlink:href="#3" y="10.855"/><use xlink:href="#4" y="19.539"/></svg><svg x="576"><use xlink:href="#a"/><use xlink:href="#1" y="2.171"/><use xlink:href="#2" y="4.342"/><use xlink:href="#3" y="10.855"/><use xlink:href="#4" y="19.539"/></svg><svg x="672"><use xlink:href="#a"/><use xlink:href="#1" y="2.171"/><use xlink:href="#2" y="4.342"/><use xlink:href="#3" y="10.855"/><use xlink:href="#4" y="19.539"/><use xlink:href="#5" y="26.052"/><use xlink:href="#6" y="28.223"/></svg><svg x="768"><use xlink:href="#a"/><use xlink:href="#1" y="2.171"/><use xlink:href="#2" y="4.342"/><use xlink:href="#3" y="10.855"/><use xlink:href="#4" y="19.539"/><use xlink:href="#5" y="26.052"/><use xlink:href="#6" y="28.223"/><use xlink:href="#7" y="34.736"/></svg><svg x="864"><use xlink:href="#a"/><use xlink:href="#1" y="2.171"/><use xlink:href="#2" y="4.342"/><use xlink:href="#3" y="10.855"/><use xlink:href="#4" y="19.539"/><use xlink:href="#5" y="26.052"/><use xlink:href="#6" y="28.223"/><use xlink:href="#7" y="34.736"/></svg><svg x="960"><use xlink:href="#a"/><use xlink:href="#1" y="2.171"/><use xlink:href="#2" y="4.342"/><use xlink:href="#3" y="10.855"/><use xlink:href="#4" y="19.539"/><use xlink:href="#5" y="26.052"/><use xlink:href="#6" y="28.223"/><use xlink:href="#7" y="34.736"/><use xlink:href="#8" y="43.42"/></svg><svg x="1056"><use xlink:href="#a"/><use xlink:href="#1" y="2.171"/><use xlink:href="#2" y="4.342"/><use xlink:href="#3" y="10.855"/><use xlink:href="#4" y="19.539"/><use xlink:href="#5" y="26.052"/><use xlink:href="#6" y="28.223"/><use xlink:href="#7" y="34.736"/><use xlink:href="#8" y="43.42"/></svg><svg x="1152"><use xlink:href="#a"/><use xlink:href="#1" y="2.171"/><use xlink:href="#2" y="4.342"/><use xlink:href="#3" y="10.855"/><use xlink:href="#4" y="19.539"/><use xlink:href="#5" y="26.052"/><use xlink:href="#6" y="28.223"/><use xlink:href="#7" y="34.736"/><use xlink:href="#8" y="43.42"/><use xlink:href="#9" y="49.933"/><use xlink:href="#10" y="52.104"/></svg><svg x="1248"><use xlink:href="#a"/><use xlink:href="#1" y="2.171"/><use xlink:href="#2" y="4.342"/><use xlink:href="#3" y="10.855"/><use xlink:href="#4" y="19.539"/><use xlink:href="#5" y="26.052"/><use xlink:href="#6" y="28.223"/><use xlink:href="#7" y="34.736"/><use xlink:href="#8" y="43.42"/><use xlink:href="#9" y="49.933"/><use xlink:href="#10" y="52.104"/><use xlink:href="#9" y="54.275"/></svg><svg x="1344"><use xlink:href="#a"/><use xlink:href="#1" y="2.171"/><use xlink:href="#2" y="4.342"/><use xlink:href="#3" y="10.855"/><use xlink:href="#4" y="19.539"/><use xlink:href="#5" y="26.052"/><use xlink:href="#6" y="28.223"/><use xlink:href="#7" y="34.736"/><use xlink:href="#8" y="43.42"/><use xlink:href="#9" y="49.933"/><use xlink:href="#10" y="52.104"/><use xlink:href="#9" y="54.275"/><use xlink:href="#9" y="58.617"/><use xlink:href="#11" y="60.788"/></svg><svg x="1440"><use xlink:href="#a"/><use xlink:href="#1" y="2.171"/><use xlink:href="#2" y="4.342"/><use xlink:href="#3" y="10.855"/><use xlink:href="#4" y="19.539"/><use xlink:href="#5" y="26.052"/><use xlink:href="#6" y="28.223"/><use xlink:href="#7" y="34.736"/><use xlink:href="#8" y="43.42"/><use xlink:href="#9" y="49.933"/><use xlink:href="#10" y="52.104"/><use xlink:href="#9" y="54.275"/><use xlink:href="#9" y="58.617"/><use xlink:href="#11" y="60.788"/><use xlink:href="#9" y="62.959"/></svg><svg x="1536"><use xlink:href="#a"/><use xlink:href="#3" y="4.342"/><use xlink:href="#4" y="13.026"/><use xlink:href="#5" y="19.539"/><use xlink:href="#6" y="21.71"/><use xlink:href="#7" y="28.223"/><use xlink:href="#8" y="36.907"/><use xlink:href="#9" y="43.42"/><use xlink:href="#10" y="45.591"/><use xlink:href="#9" y="47.762"/><use xlink:href="#9" y="52.104"/><use xlink:href="#11" y="54.275"/><use xlink:href="#9" y="56.446"/><use xlink:href="#9" y="60.788"/><use xlink:href="#12" y="62.959"/><use xlink:href="#9" y="65.13"/></svg><svg x="1632"><use xlink:href="#a"/><use xlink:href="#3"/><use xlink:href="#4" y="8.684"/><use xlink:href="#5" y="15.197"/><use xlink:href="#6" y="17.368"/><use xlink:href="#7" y="23.881"/><use xlink:href="#8" y="32.565"/><use xlink:href="#9" y="39.078"/><use xlink:href="#10" y="41.249"/><use xlink:href="#9" y="43.42"/><use xlink:href="#9" y="47.762"/><use xlink:href="#11" y="49.933"/><use xlink:href="#9" y="52.104"/><use xlink:href="#9" y="56.446"/><use xlink:href="#12" y="58.617"/><use xlink:href="#9" y="60.788"/></svg><svg x="1728"><use xlink:href="#a"/><use xlink:href="#4" y="2.171"/><use xlink:href="#5" y="8.684"/><use xlink:href="#6" y="10.855"/><use xlink:href="#7" y="17.368"/><use xlink:href="#8" y="26.052"/><use xlink:href="#9" y="32.565"/><use xlink:href="#10" y="34.736"/><use xlink:href="#9" y="36.907"/><use xlink:href="#9" y="41.249"/><use xlink:href="#11" y="43.42"/><use xlink:href="#9" y="45.591"/><use xlink:href="#9" y="49.933"/><use xlink:href="#12" y="52.104"/><use xlink:href="#9" y="54.275"/><use xlink:href="#13" y="60.788"/></svg><svg x="1824"><use xlink:href="#a"/><use xlink:href="#5" y="4.342"/><use xlink:href="#6" y="6.513"/><use xlink:href="#7" y="13.026"/><use xlink:href="#8" y="21.71"/><use xlink:href="#9" y="28.223"/><use xlink:href="#10" y="30.394"/><use xlink:href="#9" y="32.565"/><use xlink:href="#9" y="36.907"/><use xlink:href="#11" y="39.078"/><use xlink:href="#9" y="41.249"/><use xlink:href="#9" y="45.591"/><use xlink:href="#12" y="47.762"/><use xlink:href="#9" y="49.933"/><use xlink:href="#13" y="56.446"/><use xlink:href="#14" y="65.13"/></svg><svg x="1920"><use xlink:href="#a"/><use xlink:href="#5"/><use xlink:href="#6" y="2.171"/><use xlink:href="#7" y="8.684"/><use xlink:href="#8" y="17.368"/><use xlink:href="#9" y="23.881"/><use xlink:href="#10" y="26.052"/><use xlink:href="#9" y="28.223"/><use xlink:href="#9" y="32.565"/><use xlink:href="#11" y="34.736"/><use xlink:href="#9" y="36.907"/><use xlink:href="#9" y="41.249"/><use xlink:href="#12" y="43.42"/><use xlink:href="#9" y="45.591"/><use xlink:href="#13" y="52.104"/><use xlink:href="#14" y="60.788"/></svg><svg x="2016"><use xlink:href="#a"/><use xlink:href="#7" y="4.342"/><use xlink:href="#8" y="13.026"/><use xlink:href="#9" y="19.539"/><use xlink:href="#10" y="21.71"/><use xlink:href="#9" y="23.881"/><use xlink:href="#9" y="28.223"/><use xlink:href="#11" y="30.394"/><use xlink:href="#9" y="32.565"/><use xlink:href="#9" y="36.907"/><use xlink:href="#12" y="39.078"/><use xlink:href="#9" y="41.249"/><use xlink:href="#13" y="47.762"/><use xlink:href="#14" y="56.446"/><use xlink:href="#15" y="62.959"/><use xlink:href="#16" y="65.13"/></svg><svg x="2112"><use xlink:href="#a"/><use xlink:href="#7" y="2.171"/><use xlink:href="#8" y="10.855"/><use xlink:href="#9" y="17.368"/><use xlink:href="#10" y="19.539"/><use xlink:href="#9" y="21.71"/><use xlink:href="#9" y="26.052"/><use xlink:href="#11" y="28.223"/><use xlink:href="#9" y="30.394"/><use xlink:href="#9" y="34.736"/><use xlink:href="#12" y="36.907"/><use xlink:href="#9" y="39.078"/><use xlink:href="#13" y="45.591"/><use xlink:href="#14" y="54.275"/><use xlink:href="#15" y="60.788"/><use xlink:href="#16" y="62.959"/></svg><svg x="2208"><use xlink:href="#a"/><use xlink:href="#8" y="6.513"/><use xlink:href="#9" y="13.026"/><use xlink:href="#10" y="15.197"/><use xlink:href="#9" y="17.368"/><use xlink:href="#9" y="21.71"/><use xlink:href="#11" y="23.881"/><use xlink:href="#9" y="26.052"/><use xlink:href="#9" y="30.394"/><use xlink:href="#12" y="32.565"/><use xlink:href="#9" y="34.736"/><use xlink:href="#13" y="41.249"/><use xlink:href="#14" y="49.933"/><use xlink:href="#15" y="56.446"/><use xlink:href="#16" y="58.617"/><use xlink:href="#9" y="62.959"/><use xlink:href="#17" y="65.13"/></svg><svg x="2304"><use xlink:href="#a"/><use xlink:href="#8" y="2.171"/><use xlink:href="#9" y="8.684"/><use xlink:href="#10" y="10.855"/><use xlink:href="#9" y="13.026"/><use xlink:href="#9" y="17.368"/><use xlink:href="#11" y="19.539"/><use xlink:href="#9" y="21.71"/><use xlink:href="#9" y="26.052"/><use xlink:href="#12" y="28.223"/><use xlink:href="#9" y="30.394"/><use xlink:href="#13" y="36.907"/><use xlink:href="#14" y="45.591"/><use xlink:href="#15" y="52.104"/><use xlink:href="#16" y="54.275"/><use xlink:href="#9" y="58.617"/><use xlink:href="#17" y="60.788"/><use xlink:href="#9" y="62.959"/></svg><svg x="2400"><use xlink:href="#a"/><use xlink:href="#9" y="4.342"/><use xlink:href="#10" y="6.513"/><use xlink:href="#9" y="8.684"/><use xlink:href="#9" y="13.026"/><use xlink:href="#11" y="15.197"/><use xlink:href="#9" y="17.368"/><use xlink:href="#9" y="21.71"/><use xlink:href="#12" y="23.881"/><use xlink:href="#9" y="26.052"/><use xlink:href="#13" y="32.565"/><use xlink:href="#14" y="41.249"/><use xlink:href="#15" y="47.762"/><use xlink:href="#16" y="49.933"/><use xlink:href="#9" y="54.275"/><use xlink:href="#17" y="56.446"/><use xlink:href="#9" y="58.617"/><use xlink:href="#9" y="62.959"/><use xlink:href="#18" y="65.13"/></svg><svg x="2496"><use xlink:href="#a"/><use xlink:href="#9"/><use xlink:href="#10" y="2.171"/><use xlink:href="#9" y="4.342"/><use xlink:href="#9" y="8.684"/><use xlink:href="#11" y="10.855"/><use xlink:href="#9" y="13.026"/><use xlink:href="#9" y="17.368"/><use xlink:href="#12" y="19.539"/><use xlink:href="#9" y="21.71"/><use xlink:href="#13" y="28.223"/><use xlink:href="#14" y="36.907"/><use xlink:href="#15" y="43.42"/><use xlink:href="#16" y="45.591"/><use xlink:href="#9" y="49.933"/><use xlink:href="#17" y="52.104"/><use xlink:href="#9" y="54.275"/><use xlink:href="#9" y="58.617"/><use xlink:href="#18" y="60.788"/><use xlink:href="#9" y="62.959"/></svg><svg x="2592"><use xlink:href="#a"/><use xlink:href="#9"/><use xlink:href="#9" y="4.342"/><use xlink:href="#11" y="6.513"/><use xlink:href="#9" y="8.684"/><use xlink:href="#9" y="13.026"/><use xlink:href="#12" y="15.197"/><use xlink:href="#9" y="17.368"/><use xlink:href="#13" y="23.881"/><use xlink:href="#14" y="32.565"/><use xlink:href="#15" y="39.078"/><use xlink:href="#16" y="41.249"/><use xlink:href="#9" y="45.591"/><use xlink:href="#17" y="47.762"/><use xlink:href="#9" y="49.933"/><use xlink:href="#9" y="54.275"/><use xlink:href="#18" y="56.446"/><use xlink:href="#9" y="58.617"/><use xlink:href="#9" y="62.959"/><use xlink:href="#19" y="65.13"/></svg><svg x="2688"><use xlink:href="#a"/><use xlink:href="#9"/><use xlink:href="#11" y="2.171"/><use xlink:href="#9" y="4.342"/><use xlink:href="#9" y="8.684"/><use xlink:href="#12" y="10.855"/><use xlink:href="#9" y="13.026"/><use xlink:href="#13" y="19.539"/><use xlink:href="#14" y="28.223"/><use xlink:href="#15" y="34.736"/><use xlink:href="#16" y="36.907"/><use xlink:href="#9" y="41.249"/><use xlink:href="#17" y="43.42"/><use xlink:href="#9" y="45.591"/><use xlink:href="#9" y="49.933"/><use xlink:href="#18" y="52.104"/><use xlink:href="#9" y="54.275"/><use xlink:href="#9" y="58.617"/><use xlink:href="#19" y="60.788"/><use xlink:href="#9" y="62.959"/></svg></svg></g></g></svg></svg>
